<?xml version="1.0" encoding="utf-8"?>
<!-- Generator: Adobe Illustrator 16.0.0, SVG Export Plug-In . SVG Version: 6.00 Build 0)  -->
<!DOCTYPE svg PUBLIC "-//W3C//DTD SVG 1.1//EN" "http://www.w3.org/Graphics/SVG/1.1/DTD/svg11.dtd">
<svg version="1.1" id="图层_1" xmlns="http://www.w3.org/2000/svg" xmlns:xlink="http://www.w3.org/1999/xlink" x="0px" y="0px"
	 width="280px" height="52px" viewBox="0 0 280 52" enable-background="new 0 0 280 52" xml:space="preserve">
<g>
	<g>
		<g>
			<g>
				<path fill-rule="evenodd" clip-rule="evenodd" fill="#FFFFFF" d="M89.285,16.841c0.557,0.006,0.743-0.615,1.335-0.915
					c0.303-0.165,0.783-0.117,1.168-0.336c0.98-0.563,1.04-1.668,2.329-1.829c0.885-0.114,1.688,0.298,2.583,0.579
					c0.113,1.132-0.468,2.016-0.996,2.67c-0.468,0.558-1.232,1.359-2.003,1.661c-0.71,0.271-1.577,0.14-2.335,0.413
					c-0.333,0.124-0.661,0.479-1.082,0.663c-0.531,0.247-1.151,0.26-1.5,0.509c-0.957,0.677-1.315,3.26-1.664,4.575
					c-0.729,2.705-1.716,5.735-0.92,8.741c2.533,0.092,4.355-0.981,5.999-1.994c0.478-0.296,1.315-0.968,1.667-1.002
					c0.898-0.087,1.878,0.879,1.918,1.583c0.062,1.085-1.668,2.964-2.413,3.242c-0.5,0.191-1.238,0.105-2.006,0.255
					c-2.581,0.508-5.582,3.024-7.745,0.832c-0.222-0.478-0.117-0.925-0.419-1.497c-0.232-0.453-0.737-0.667-0.831-1.089
					c-0.08-0.36,0.124-0.865,0.165-1.407c0.074-0.909-0.018-2.052,0.083-2.916c0.093-0.758,0.377-1.479,0.419-2.168
					c0.026-0.447-0.104-0.923-0.083-1.332c0.044-1.062,0.517-2.176,0.667-3.328c0.434-3.366,0.582-6.969,1.417-10.078
					c0.269-1.009,0.965-2.429,0.582-3.744c-0.167-0.563-0.813-0.947-0.832-1.415c-0.025-0.458,0.395-1.168,0.913-1.168
					c0.531-0.002,0.789,0.254,1.254,0.501c1.772,0.943,3.163,1.921,2.914,4.915C89.699,13.774,88.002,15.422,89.285,16.841z"/>
			</g>
			<g>
				<path fill-rule="evenodd" clip-rule="evenodd" fill="#FFFFFF" d="M75.618,8.268c0.957-0.021,0.938,0.775,1.586,1.826
					c0.71,1.154,1.198,1.972,1.332,3.667c0.092,1.104-0.051,2.323,0,3.492c0.036,0.756,0.244,1.521,0.252,2.168
					c0.001,0.419-0.171,0.862-0.169,1.245c0.008,0.776,0.497,1.833,0.169,2.497c0.026,0.34,0.339,0.384,0.416,0.67
					c0.076,0.445-0.3,0.979-0.25,1.583c0.031,0.384,0.317,0.646,0.332,0.997c0.012,0.419-0.281,0.818-0.332,1.246
					c-0.063,0.527,0.099,1.153,0,1.835c-0.123,0.894-0.538,1.821-0.583,2.665c-0.022,0.432,0.09,0.906,0.084,1.328
					c-0.042,2.829-2.158,5.812-4.331,4.249c-0.264-0.83,0.182-1.883-0.088-2.745c-0.833,0.219-1.033,1.209-1.583,1.828
					c-1.075,1.206-3.635,2.563-4.331,0c-0.443-1.625,0.563-2.951,0.749-4.66c0.133-1.215,0.254-2.797,0.168-3.994
					c-0.035-0.479-0.193-0.904-0.168-1.334c0.094-1.738,1.094-2.421,0.75-3.747c-0.311-1.202-1.577-1.161-1.417-2.665
					c2.086-1.312,4.164,0.32,5.748,0.998c0.777-1.249,0.324-2.761,0.336-4.328c0.005-0.982,0.398-2.151,0.581-3.245
					c0.184-1.111,0.491-2.355,0.501-3.332C75.378,9.615,74.899,8.831,75.618,8.268z M72.124,31.492c1.08-0.751,3.316-2.713,2-4.834
					C72.901,27.717,72.041,29.135,72.124,31.492z"/>
			</g>
		</g>
		<g>
			<path fill-rule="evenodd" clip-rule="evenodd" fill="#FFFFFF" d="M151.045,28.579c1.729,0.131,7.859-3.411,8.418,0.163
				c0.217,1.402-1.701,3.34-3.086,3.417c-0.961,0.052-1.85-0.385-2.746-0.167c-0.402,0.091-0.645,0.464-1.002,0.581
				c-0.627,0.205-1.447-0.065-1.828,0.667c-0.275,0.05-0.389-0.058-0.584-0.083c-0.502,0.392-1.176,0.6-1.672,0.993
				c-1.133,0.035-2.26,0.077-2.748,0.753c-1.785,0.083-3.183,0.696-4.827,0.171c-0.422-0.134-0.711-0.491-1.168-0.667
				c-1.101-0.429-2.395-0.263-3.247-1.084c0.308-1.685,1.939-1.331,3.747-1.745c1.359-0.32,2.314-1.274,4.16-1.173
				c2.068-3.342,5.113-5.708,6.002-10.237c-1.01-0.159-2.033-0.138-3.002,0.25c-0.309,0.127-0.512,0.487-0.83,0.58
				c-0.398,0.118-0.857-0.128-1.418-0.165c-0.566-0.038-1.127,0.193-1.504,0.165c-0.896-0.058-2.249-0.792-2.078-1.992
				c0.861-0.864,2.24-0.421,3.418-0.752c0.34-0.095,0.561-0.49,1-0.585c0.242-0.049,0.582,0.056,0.834,0
				c0.479-0.108,0.748-0.51,1.244-0.749c0.295-0.132,0.824-0.239,1.252-0.416c1.094-0.442,2.244-0.878,3.332-1.327
				c0.516-0.483,1.076-0.928,1.75-1.25c1.988,0.458,5.322,2.169,3.834,4.327c-0.527,0.757-1.605,1.309-2.25,2.082
				c-0.689,0.818-1.236,1.695-1.838,2.498c-0.363,0.491-0.613,0.838-0.83,1.336c-0.203,0.468-0.248,1.009-0.498,1.579
				C152.404,26.827,151.402,27.574,151.045,28.579z"/>
		</g>
		<g>
			<g>
				<path fill-rule="evenodd" clip-rule="evenodd" fill="#FFFFFF" d="M225.98,18.585c1.506-0.023,1.568-2.274,2.916-2.578
					c0.955-0.215,2.857,0.68,2.912,1.499c0.045,0.568-1.061,1.415-1.58,1.749c-1.434,0.923-2.672,1.417-3.5,2.915
					c-0.666,0.136-1.096,0.512-1.584,0.829c-0.258,0.589-0.055,1.047-0.166,1.499c-0.111,0.454-0.49,0.709-0.584,1.08
					c-0.133,0.539-0.027,1.319-0.166,1.92c-0.918,3.951-3.932,9.329-7.416,10.736c-0.426,0.173-1.027,0.346-1.414,0.417
					c-0.924,0.167-3.945,0.253-4.002-0.749c-0.039-0.686,2.297-1.586,2.916-1.999c2.094-1.391,3.43-2.981,4.75-4.993
					c0.631-0.961,1.434-1.979,1.416-3.412c-1.115,0.04-1.205,1.187-1.916,1.747c-0.344,0.275-1.037,0.376-1.498,0.751
					c-0.342,0.267-0.467,0.807-0.836,0.914c-0.729,0.216-1.664-0.237-2.082-0.505c-0.547-0.345-1.117-0.993-1.666-1.579
					c-0.543-0.581-1.365-1.243-1.166-2.079c1.439-0.147,2.275-0.896,3.666-1.08c0.967-0.949,2.695-1.139,3.414-2.333
					c1.559-0.27,3.125-1.118,3.502-2.583c0.42-1.644,0.016-4.736,0.164-6.989c0.055-0.807,0.197-2.577,0.086-3.418
					c-0.049-0.355-0.41-0.676-0.504-1.165c-0.246-1.337,0.182-2.796,0.666-3.577c1.602,0.666,2.986,2.927,4.004,4.245
					C226.496,13.07,225.299,15.869,225.98,18.585z"/>
			</g>
			<g>
				<path fill-rule="evenodd" clip-rule="evenodd" fill="#FFFFFF" d="M234.391,33.572c1.313-0.087,2.141,0.305,2.836,0.835
					c0.021,0.908-0.471,1.302-0.916,1.748c-2.582-0.137-2.889,2.005-5.496,1.826c-1.75-0.953-1.945-3.633-2.918-5.908
					c-0.373-0.866-0.773-1.63-1.082-2.331c-0.406-0.921-0.553-1.702-0.834-2.581c-0.174-0.533-1.205-1.954-0.084-2.246
					c1.445-0.387,1.742,2.108,2.164,2.917c0.307,0.582,0.926,0.878,1.338,1.413c0.43,0.573,0.586,1.353,1.08,1.911
					C231.553,32.378,232.994,32.803,234.391,33.572z"/>
			</g>
		</g>
		<g>
			<g>
				<path fill-rule="evenodd" clip-rule="evenodd" fill="#FFFFFF" d="M122.834,8.931c0.164,1.071-0.306,2.215-1.25,2.082
					c-0.604-0.09-0.755-1.053-1.082-1.582c-0.843-1.354-3.392-2.247-3.749-3.659c0.445-0.758,1.735-0.836,2.832-0.752
					c1.918,0.135,4.021,0.784,4.583,1.92C124.675,7.95,123.697,8.543,122.834,8.931z"/>
			</g>
			<g>
				<path fill-rule="evenodd" clip-rule="evenodd" fill="#FFFFFF" d="M127.919,11.512c-0.392,0.955-1.514,1.143-2.336,1.411
					c-2.655,0.876-4.962,2.405-7.163,3.997c-1.368,0.997-3.09,1.85-5.416,2.087c-2.021,0.201-4.792,0.288-6.585-0.672
					c0.145-2.056,2.716-2.121,4.338-2.744c0.627-0.248,1.223-0.853,1.83-0.998c0.786-0.196,1.396-0.019,2.083-0.252
					c0.343-0.115,0.601-0.412,1.002-0.579c0.98-0.421,2.413-0.597,3.665-0.917c1.238-0.319,2.455-0.903,3.498-1.08
					c0.432-0.08,0.908,0.03,1.335-0.086c0.374-0.1,0.703-0.488,1.082-0.582C126.066,10.89,127.172,10.908,127.919,11.512z"/>
			</g>
			<g>
				<path fill-rule="evenodd" clip-rule="evenodd" fill="#FFFFFF" d="M123.501,19.747c0.143,0.572,0.09,1.204-0.166,1.587
					c-2.041,0.792-2.648,3.017-4.417,4.083c0.725-0.258,2.7-0.547,2.916,0.415c0.26,1.148-2.14,2.923-3.165,3.414
					c-0.219,0.639,0.211,1.628,0.082,2.493c-0.035,0.265-0.232,0.532-0.247,0.757c-0.136,1.559,1.396,6.802-0.916,6.739
					c-1.25-0.033-1.507-1.677-2.338-2.415c-0.671-0.594-1.429-0.681-2.081-1.251c-1.483,1.103-2.388,2.776-3.917,3.833
					c-0.646-0.139-0.985-0.569-1.415-0.915c-0.198-1.034-0.789-2.796-0.167-3.832c0.373-0.226,0.817,0.101,1.167,0.171
					c1.979-1.016,3.155-2.851,5.582-3.419c0.431,0.341,0.188,1.372,0.25,2.081c-0.358,0.146-0.513,0.487-0.751,0.755
					c0.457,0.343,1.17,0.438,1.918,0.499c0.571-1.225,0.774-3.198,0.667-4.833c-0.211-0.313-0.701-0.352-1-0.581
					c-0.567-1.375,0.755-2.202,0.248-3.248c-0.32,0.041-0.473,0.25-0.663,0.419c0.446,2.259-1.039,3.849-2.085,5.161
					c-3.198-0.178-1.728-5.27-1.501-7.743c0.083-0.902,0.148-1.973,0.836-2.087c0.812-0.12,1.04,0.826,1.747,1.17
					c1.961-0.512,2.355-2.585,4.501-2.911c0.345-0.235,0.588-0.58,0.915-0.833C120.94,19.075,122.702,18.89,123.501,19.747z"/>
			</g>
			<g>
				<path fill-rule="evenodd" clip-rule="evenodd" fill="#FFFFFF" d="M121.422,28.826c0.367-0.16,0.855-0.194,1.412-0.169
					c1.032,0.636,2.512,1.765,2.749,3.248c0.159,0.988,0.104,2.617-0.332,3.169c-0.601,0.756-1.952,0.603-2.584,0
					C121.478,33.93,120.432,30.763,121.422,28.826z"/>
			</g>
		</g>
		<g>
			<g>
				<path fill-rule="evenodd" clip-rule="evenodd" fill="#FFFFFF" d="M185.094,11.012c-0.229-0.125-0.309-0.413-0.498-0.584
					c0.344-1.084,1.629-1.633,1.254-3.163c-0.65-0.614-1.889-1.039-1.5-2.415c1.939-0.914,5.408-0.593,5.746,1.331
					c0.334,1.907-2.117,2.53-3.084,3.413C186.369,10.189,186.096,11.21,185.094,11.012z"/>
			</g>
			<g>
				<path fill-rule="evenodd" clip-rule="evenodd" fill="#FFFFFF" d="M190.014,15.422c0.66,0.121,1.928-0.434,3.082-0.246
					c0.697,0.111,1.094,0.515,1.498,0.831c0.123,0.78-0.365,0.962-0.5,1.499c0.26,0.565,0.619,0.14,1.25,0.248
					c0.908,0.163,2.305,1.394,2.418,2.502c0.109,1.038-0.258,2.225-0.334,3.578c-0.174,3.048-0.348,6.656-0.082,9.819
					c0.23,2.827,0.316,5.609-1.42,6.828c-1.295,0.154-2.152-1.006-3.246-1.246c-0.77-0.169-1.377-0.042-1.918-0.416
					c-0.543-0.376-0.662-0.965-1.248-1.421c-0.727-0.353-1.896-0.613-1.582-1.741c2.244,0.077,3.924,1.353,6.246,0.832
					c0.672-0.709,0.457-3.118,0.584-4.496c0.219-2.347,0.051-5.615,0.168-8.242c0.055-1.345,0.432-2.501-0.252-3.494
					c-3.232,0.201-5.205,2.578-7.914,3.994c-0.283,0.146-0.635,0.172-0.914,0.329c-0.977,0.554-1.836,1.458-3.09,2.168
					c-0.984,0.562-4.697,2.55-4.91-0.167c4.027-1.719,6.805-4.691,11.078-6.162c0.48-1.689,2.654-1.682,3.084-3.408
					c-3.105,0.25-5.408,2.556-7.83,3.823c-0.389,0.199-1.234,0.467-1.83,0.087c-0.221-2.495,1.996-3.426,3.744-4.417
					c0.891-0.496,1.775-1.04,2.586-1.663c1.713-1.318,2.859-3.033,4.748-3.745c0.051-0.42,0.529-0.417,0.586-0.831
					c-0.131-0.345-0.646-0.305-0.754-0.67c0.896-1.101,2.701-1.296,3.414-2.58c1.447,0.054,1.877,1.792,1.086,2.832
					c-0.494,0.645-1.492,1.217-2.334,1.831c-0.885,0.637-1.859,0.876-2.748,1.329C191.555,13.583,190.859,14.892,190.014,15.422z"/>
			</g>
			<g>
				<path fill-rule="evenodd" clip-rule="evenodd" fill="#FFFFFF" d="M190.68,10.678c-0.104,0.476-0.619,0.891-1,1.164
					c-0.357,0.268-0.936,0.625-1.334,0.758c-0.367,0.103-0.734,0.019-1.084,0.16c-0.744,0.307-1.484,1.275-2.25,1.833
					c-0.92,0.674-1.961,0.794-2.66,1.334c-0.537,0.4-0.73,1.18-1.256,1.579c-0.461,0.352-1.143,0.343-1.666,0.583
					c-1.002,0.453-1.701,1.251-2.582,1.751c-0.221,0-0.445,0-0.666,0c-0.557,0.291-1.023,0.68-1.586,1.08
					c-0.48,0.335-1.115,0.929-1.744,0.908c-0.896-0.015-2.215-1.435-2.25-2.24c-0.082-1.645,1.59-1.219,2.83-1.75
					c0.846-0.366,0.957-0.928,1.582-1.336c2.279,0.225,3.471-1.593,5.418-1.911c0.33-0.06,0.686,0.069,0.994,0
					c0.545-0.124,1.275-0.64,1.922-1.004c1.75-0.982,4.535-1.863,5.746-3.16C189.684,10.453,190.383,10.36,190.68,10.678z"/>
			</g>
			<g>
				<path fill-rule="evenodd" clip-rule="evenodd" fill="#FFFFFF" d="M191.766,23.75c-0.205,1.656-1.514,2.204-2.086,3.494
					c0.797,0.674,2.365,0.683,2.582,1.835c0.178,0.94-0.621,1.603-1,2.413c-0.217,0.118-0.551,0.118-0.75,0.246
					c-1.279,1.834-3.518,2.701-5.664,3.663c-0.219-0.167-0.482-0.291-0.666-0.498c-0.064-0.342,0.127-0.426,0.08-0.753
					c1.184-0.663,2.063-1.648,3.252-2.491c0.709-0.503,1.404-1.004,1.58-2.08c-0.084-0.334-0.484-0.354-0.578-0.669
					c-0.764,0.209-1.844,0.675-2.586,0.169c0.014-1.766,1.6-1.958,1.916-3.412c-1.354,0.088-1.707,1.897-2.42,2.912
					c-1.172,0.011-2.328,0.004-2.914-0.585c0.189-0.991,1.52-1.126,2.418-1.581c1.641-0.835,2.775-2.474,4.164-3.414
					C190.227,22.539,191.438,22.76,191.766,23.75z"/>
			</g>
			<g>
				<path fill-rule="evenodd" clip-rule="evenodd" fill="#FFFFFF" d="M177.764,38.566c-1.008-0.385-1.494-1.697-1.332-2.833
					c0.086-0.595,0.793-1.321,1.166-2.324c0.525-1.417,0.215-2.801,1-3.83c1.242-0.013,1.697,3.104,1.502,4.987
					c-0.115,1.1-0.854,1.659-1.336,2.17C178.877,37.792,178.193,38.044,177.764,38.566z"/>
			</g>
		</g>
		<g>
			<g>
				<path fill-rule="evenodd" clip-rule="evenodd" fill="#FFFFFF" d="M269.887,26.451c-0.178,0.574-0.525,0.972-0.836,1.415
					c-0.861-0.099-1.793,0.248-2.58,0.248c-0.574,0-1.223-0.521-1.586,0.087c0.799,2.263,2.412,5.843,0.748,8.32
					c-0.24,0.178-0.496,0.337-0.664,0.584c-2.021,0.817-4.434-0.333-6.498-0.834c-0.955-0.227-2.027-0.004-2.414-0.911
					c0.721-0.727,1.959,0.059,3.162,0.163c2.371,0.21,4.443-0.364,5.336-1.742c-0.258-1.479-0.223-4.66-1.5-4.914
					c-1.486-0.298-3.283,2.264-4.834,2.162c-0.471,0.235-0.563,0.835-1.084,1.163c-1.49,0.953-4.199,0.367-4.914-0.832
					c1.154-1.465,3.188-1.781,5-2.66c1.104-0.535,2.012-1.355,3.164-1.833c1.131-0.472,2.525-1.004,3.836-1.164
					c0.695-0.091,1.504,0.087,2.248,0c0.379-0.048,0.729-0.297,1.082-0.336C268.699,25.251,269.496,25.643,269.887,26.451z"/>
			</g>
			<g>
				<path fill-rule="evenodd" clip-rule="evenodd" fill="#FFFFFF" d="M273.051,6.382c-0.322,0.071-0.596,0.529-1.082,0.585
					c-0.74,0.086-1.207-0.492-2.168-0.334c-1.029,0.173-1.404,1.22-2.498,1.5c0.215-0.716,1.057-1.363,0.502-2.16
					c-0.219-0.323-1.576-0.708-1.75-0.587c-1.406,0.996-2.539,3.659-3.92,4.161c-0.961,0.356-1.852,0.054-2.58,0.503
					c-1.518-1.092-2.885-2.335-5.334-2.498c-0.043,0.201-0.193,0.305-0.332,0.417c0.104,1.179,1.414,1.491,1.918,2.412
					c0.555,1.02,0.473,2.247,1.082,3.416c-0.258,0.016-0.473,0.083-0.666,0.171c0.172,0.71,0.889,0.694,1,1.328
					c0.184,1.061-1.117,1.829-2.002,2.16c0.258-2.317-0.836-3.709-2.748-3.577c0.014,0.958,0.822,2.188,0.916,3.746
					c0.09,1.481-0.311,3.05,0.668,3.582c0.605,0.107,0.811-0.189,1.33-0.17c0.9-1.293,0.838-3.506,2.418-4.079
					c0.533-0.193,1.111-0.04,1.668-0.417c-0.01-1.326,1.686-3.218,2.496-1.664c-0.346,0.988-1.473,1.19-1.832,2.162
					c0.805,0.492,1.859-0.62,3.168-0.583c0.311,0.01,1.566,0.141,1.58,0.669c0.008,0.312-1.477,1.28-1.996,1.665
					c-1.65,1.204-2.84,1.819-4.58,2.744c-0.891,0.474-1.922,0.926-2.42,1.339c-0.471,0.381-0.664,1.172-1.164,1.409
					c-0.439,0.21-1.176,0.077-1.584,0.087c-1.412,0.863-2.977,1.577-4.17,2.665c0,0.33,0,0.667,0,0.992
					c1.35,1.509,3.459,0.322,4.67-0.413c0.672-0.413,1.369-0.741,2-1.081c2.646-1.427,4.766-3.535,7.414-4.745
					c0.723-0.331,1.469-0.548,2.164-0.915c0.666-0.354,1.344-0.922,2.17-0.75c-0.717,2.174-3.404,3.097-4.588,5.08
					c0.932,0.937,1.432-0.506,2.004-0.921c0.734-0.522,1.887-0.842,2.832-1.327c0.945-0.489,1.93-1.024,2.502-1.748
					c0.871-1.109,0.213-3.364-1.754-2.913c-0.402,0.088-0.766,0.626-1.25,0.828c-0.777,0.327-1.793,0.486-2.666,0.752
					c-0.945,0.284-1.697,0.809-2.414,0.837c0.584-0.653,1.824-0.866,2.914-1.589c0.611-0.4,1.063-1.261,1.754-1.414
					c0.553-0.122,1.707,0.329,2.496,0c0.422-0.174,1.133-1.28,1.67-1.998c1.193-1.599,1.971-2.841,2.992-4.326
					c0.52-0.74,1.311-1.385,1.59-2.086C276.117,7.705,274.492,6.113,273.051,6.382z M259.723,13.128
					c0.154-0.121,0.395-0.16,0.664-0.167c-0.012,0.102,0.02,0.153,0.082,0.167C260.367,13.437,259.816,13.468,259.723,13.128z
					 M259.723,12.047c0.086-0.475-0.408-0.713-0.168-1.08c0.379-0.081,0.994,0.267,1.5,0.333
					C260.895,11.833,260.367,12,259.723,12.047z M262.973,13.381c-0.268-0.037-0.723,0.106-0.752-0.167
					c0.217-0.422,0.639-0.639,1.168-0.751C263.377,12.892,263.061,13.024,262.973,13.381z M265.137,14.796
					c-0.137,0.136-0.488,0.067-0.748,0.082C264.266,14.221,265.293,13.908,265.137,14.796z M266.635,15.046
					c-0.525-0.049-0.332-1.104-0.246-1.502c0.539,0.073,0.24,0.983,0.416,1.413C266.707,14.947,266.652,14.979,266.635,15.046z
					 M271.135,12.794c-0.701,1.03-1.453,2.132-2.416,2.417c0.176-1.172,0.332-2.728-1.082-2.91c-0.43,0.01-0.561,0.325-0.914,0.41
					c-0.074-0.656,0.197-0.966,0.328-1.41c-0.102-0.366-0.25-0.685-0.498-0.92c0.877-1.311,3.193-1.192,4.5-2.076
					c0.715-0.057,1.143,0.187,1.668,0.332C272.723,10.245,271.908,11.668,271.135,12.794z"/>
			</g>
		</g>
	</g>
	<g>
		<g>
			<path fill="#FFFFFF" d="M70.435,42.655h0.126c0.534,0,0.945,0.059,1.229,0.177c0.313,0.149,0.566,0.333,0.727,0.61
				c0.188,0.277,0.283,0.55,0.283,0.855c0,0.273-0.095,0.546-0.252,0.791c-0.162,0.249-0.377,0.43-0.693,0.581
				c0.407,0.123,0.724,0.306,0.945,0.584c0.19,0.271,0.317,0.608,0.317,0.974c0,0.303-0.064,0.578-0.193,0.854
				c-0.156,0.24-0.315,0.453-0.503,0.607c-0.187,0.126-0.437,0.241-0.725,0.309c-0.285,0.055-0.662,0.119-1.072,0.119h-0.189v-0.759
				h0.189c0.28,0,0.471-0.036,0.597-0.036c0.19-0.056,0.378-0.093,0.505-0.184c0.129-0.088,0.258-0.207,0.349-0.365
				c0.064-0.149,0.124-0.332,0.124-0.546c0-0.243-0.06-0.431-0.187-0.609c-0.125-0.189-0.316-0.306-0.538-0.397
				c-0.221-0.064-0.57-0.092-0.979-0.092h-0.061v-0.766c0.373,0,0.627-0.025,0.819-0.09c0.221-0.062,0.377-0.149,0.503-0.304
				c0.099-0.153,0.161-0.333,0.161-0.582c0-0.207-0.062-0.396-0.161-0.544c-0.094-0.155-0.25-0.278-0.439-0.342
				c-0.189-0.06-0.475-0.089-0.882-0.089V42.655z M68.066,49.117v-6.462h2.369v0.758c-0.037,0-0.095,0-0.165,0h-1.322v1.95h1.45
				h0.037v0.766h-1.487v2.229h1.487v0.759H68.066z"/>
		</g>
		<g>
			<polygon fill="#FFFFFF" points="73.684,49.117 73.684,42.655 78.515,42.655 78.515,43.413 74.568,43.413 74.568,45.403 
				78.258,45.403 78.258,46.156 74.568,46.156 74.568,48.358 78.672,48.358 78.672,49.117 			"/>
		</g>
		<g>
			<rect x="79.397" y="42.655" fill="#FFFFFF" width="0.885" height="6.462"/>
		</g>
		<g>
			<path fill="#FFFFFF" d="M80.756,47.287l0.787-0.119c0.029,0.487,0.128,0.82,0.285,0.996c0.191,0.194,0.408,0.276,0.727,0.276
				c0.219,0,0.412-0.029,0.564-0.147c0.16-0.087,0.26-0.211,0.32-0.394c0.059-0.149,0.094-0.434,0.094-0.791v-4.453h0.888v4.395
				c0,0.54-0.065,0.967-0.192,1.243c-0.156,0.31-0.35,0.522-0.664,0.705c-0.286,0.153-0.633,0.21-1.01,0.21
				c-0.603,0-1.04-0.155-1.36-0.486C80.883,48.411,80.725,47.932,80.756,47.287z"/>
		</g>
		<g>
			<rect x="85.364" y="42.655" fill="#FFFFFF" width="0.884" height="6.462"/>
		</g>
		<g>
			<polygon fill="#FFFFFF" points="87.162,49.117 87.162,42.655 88.046,42.655 91.579,47.718 91.579,42.655 92.402,42.655 
				92.402,49.117 91.521,49.117 88.014,44.025 88.014,49.117 			"/>
		</g>
		<g>
			<path fill="#FFFFFF" d="M96.378,46.577v-0.753h2.843v2.382c-0.447,0.329-0.886,0.569-1.363,0.761
				c-0.471,0.15-0.942,0.241-1.416,0.241c-0.662,0-1.261-0.121-1.801-0.393c-0.535-0.28-0.945-0.677-1.199-1.191
				c-0.282-0.516-0.411-1.067-0.411-1.711c0-0.64,0.129-1.22,0.411-1.768c0.253-0.546,0.664-0.942,1.166-1.218
				c0.507-0.248,1.11-0.391,1.769-0.391c0.474,0,0.917,0.087,1.295,0.241c0.41,0.149,0.693,0.362,0.912,0.635
				c0.228,0.242,0.413,0.612,0.509,1.039l-0.79,0.21c-0.096-0.33-0.222-0.578-0.38-0.764c-0.125-0.179-0.341-0.333-0.629-0.456
				c-0.285-0.119-0.57-0.183-0.917-0.183c-0.411,0-0.758,0.063-1.047,0.183c-0.306,0.123-0.531,0.277-0.722,0.492
				c-0.188,0.18-0.312,0.397-0.405,0.637c-0.193,0.398-0.255,0.832-0.255,1.28c0,0.577,0.093,1.07,0.283,1.436
				c0.222,0.396,0.505,0.701,0.917,0.877c0.38,0.194,0.786,0.276,1.229,0.276c0.407,0,0.759-0.05,1.137-0.211
				c0.343-0.147,0.628-0.298,0.82-0.456v-1.196H96.378z"/>
		</g>
		<g>
			<polygon fill="#FFFFFF" points="103.607,49.117 103.607,43.413 101.4,43.413 101.4,42.655 106.704,42.655 106.704,43.413 
				104.49,43.413 104.49,49.117 			"/>
		</g>
		<g>
			<polygon fill="#FFFFFF" points="106.985,49.117 106.985,42.655 111.814,42.655 111.814,43.413 107.864,43.413 107.864,45.403 
				111.563,45.403 111.563,46.156 107.864,46.156 107.864,48.358 111.972,48.358 111.972,49.117 			"/>
		</g>
		<g>
			<path fill="#FFFFFF" d="M117.306,46.835l0.886,0.232c-0.191,0.683-0.535,1.226-1.011,1.592c-0.475,0.365-1.073,0.549-1.769,0.549
				c-0.727,0-1.292-0.121-1.734-0.433c-0.479-0.27-0.822-0.66-1.041-1.22c-0.224-0.541-0.348-1.127-0.348-1.731
				c0-0.667,0.124-1.253,0.376-1.74c0.286-0.519,0.663-0.881,1.136-1.156c0.506-0.248,1.044-0.391,1.644-0.391
				c0.663,0,1.229,0.177,1.672,0.51c0.443,0.312,0.791,0.763,0.944,1.376l-0.85,0.214c-0.159-0.491-0.377-0.827-0.699-1.037
				c-0.278-0.214-0.656-0.34-1.101-0.34c-0.505,0-0.948,0.126-1.292,0.37c-0.345,0.245-0.573,0.551-0.728,0.941
				c-0.126,0.425-0.194,0.832-0.194,1.253c0,0.549,0.068,1.038,0.226,1.43c0.188,0.43,0.441,0.734,0.792,0.91
				c0.347,0.227,0.723,0.309,1.133,0.309c0.508,0,0.914-0.114,1.26-0.391C116.956,47.806,117.181,47.379,117.306,46.835z"/>
		</g>
		<g>
			<polygon fill="#FFFFFF" points="118.663,49.117 118.663,42.655 119.55,42.655 119.55,45.308 123.018,45.308 123.018,42.655 
				123.905,42.655 123.905,49.117 123.018,49.117 123.018,46.069 119.55,46.069 119.55,49.117 			"/>
		</g>
		<g>
			<polygon fill="#FFFFFF" points="124.693,49.117 124.693,42.655 125.61,42.655 129.113,47.718 129.113,42.655 129.967,42.655 
				129.967,49.117 129.047,49.117 125.544,44.025 125.544,49.117 			"/>
		</g>
		<g>
			<path fill="#FFFFFF" d="M133.718,42.537h0.034c0.601,0,1.17,0.143,1.642,0.415c0.504,0.308,0.881,0.703,1.137,1.193
				c0.249,0.517,0.404,1.095,0.404,1.736c0,0.675-0.155,1.259-0.404,1.773c-0.289,0.509-0.665,0.88-1.172,1.16
				c-0.5,0.271-1.038,0.393-1.641,0.393v-0.735c0.667,0,1.234-0.206,1.641-0.667c0.445-0.455,0.667-1.098,0.667-1.924
				c0-0.519-0.094-0.971-0.286-1.372c-0.188-0.396-0.438-0.7-0.817-0.91c-0.349-0.214-0.73-0.34-1.17-0.34h-0.034V42.537z
				 M130.53,45.976c0-1.099,0.316-1.922,0.889-2.533c0.596-0.61,1.383-0.905,2.299-0.905v0.723c-0.601,0-1.128,0.214-1.607,0.639
				c-0.444,0.399-0.664,1.098-0.664,2.077c0,0.792,0.22,1.403,0.664,1.83c0.412,0.461,0.976,0.667,1.607,0.667l0,0v0.735
				c-0.631,0-1.165-0.155-1.668-0.433c-0.507-0.303-0.885-0.693-1.142-1.22C130.659,47.067,130.53,46.524,130.53,45.976z"/>
		</g>
		<g>
			<polygon fill="#FFFFFF" points="137.381,49.117 137.381,42.655 138.267,42.655 138.267,48.358 141.545,48.358 141.545,49.117 			
				"/>
		</g>
		<g>
			<path fill="#FFFFFF" d="M144.889,42.537L144.889,42.537c0.598,0,1.168,0.143,1.67,0.415c0.475,0.308,0.854,0.703,1.105,1.193
				c0.287,0.517,0.412,1.095,0.412,1.736c0,0.675-0.125,1.259-0.412,1.773c-0.283,0.509-0.662,0.88-1.166,1.16
				c-0.504,0.271-1.043,0.393-1.609,0.393v-0.735c0.664,0,1.201-0.206,1.643-0.667c0.41-0.455,0.631-1.098,0.631-1.924
				c0-0.519-0.096-0.971-0.285-1.372c-0.188-0.396-0.445-0.7-0.787-0.91c-0.383-0.214-0.756-0.34-1.201-0.34l0,0V42.537z
				 M141.672,45.976c0-1.099,0.314-1.922,0.914-2.533c0.596-0.61,1.354-0.905,2.303-0.905v0.723c-0.629,0-1.17,0.214-1.605,0.639
				c-0.479,0.399-0.697,1.098-0.697,2.077c0,0.792,0.219,1.403,0.662,1.83c0.443,0.461,0.979,0.667,1.641,0.667l0,0v0.735
				c-0.629,0-1.197-0.155-1.707-0.433c-0.467-0.303-0.848-0.693-1.101-1.22C141.83,47.067,141.672,46.524,141.672,45.976z"/>
		</g>
		<g>
			<path fill="#FFFFFF" d="M151.676,46.577v-0.753h2.84v2.382c-0.443,0.329-0.881,0.569-1.354,0.761
				c-0.451,0.15-0.916,0.241-1.422,0.241c-0.635,0-1.236-0.121-1.771-0.393c-0.535-0.28-0.949-0.677-1.229-1.191
				c-0.256-0.516-0.412-1.067-0.412-1.711c0-0.64,0.156-1.22,0.412-1.768c0.279-0.546,0.662-0.942,1.168-1.218
				c0.533-0.248,1.1-0.391,1.768-0.391c0.504,0,0.916,0.087,1.322,0.241c0.383,0.149,0.695,0.362,0.916,0.635
				c0.225,0.242,0.385,0.612,0.506,1.039l-0.785,0.21c-0.133-0.33-0.254-0.578-0.385-0.764c-0.158-0.179-0.373-0.333-0.629-0.456
				c-0.281-0.119-0.6-0.183-0.945-0.183c-0.383,0-0.727,0.063-1.043,0.183c-0.279,0.123-0.537,0.277-0.693,0.492
				c-0.193,0.18-0.346,0.397-0.439,0.637c-0.16,0.398-0.258,0.832-0.258,1.28c0,0.577,0.098,1.07,0.316,1.436
				c0.188,0.396,0.506,0.701,0.883,0.877c0.412,0.194,0.82,0.276,1.266,0.276c0.377,0,0.76-0.05,1.104-0.211
				c0.381-0.147,0.664-0.298,0.852-0.456v-1.196H151.676z"/>
		</g>
		<g>
			<path fill="#FFFFFF" d="M157.039,49.117v-2.744l-2.551-3.718h1.068l1.328,1.95c0.219,0.364,0.441,0.732,0.66,1.093
				c0.188-0.335,0.447-0.729,0.723-1.158l1.295-1.885h1.045l-2.684,3.718v2.744H157.039z"/>
		</g>
		<g>
			<path fill="#FFFFFF" d="M165.119,42.655h0.443l2.748,6.462h-1.014l-0.756-1.949h-1.422v-0.705h1.137l-0.693-1.801
				c-0.189-0.481-0.348-0.88-0.443-1.22V42.655z M162.057,49.117l2.559-6.462h0.504v0.787c0-0.029-0.029-0.057-0.029-0.119
				c-0.098,0.428-0.223,0.822-0.379,1.248l-0.725,1.892h1.133v0.705h-1.387l-0.729,1.949H162.057z"/>
		</g>
		<g>
			<polygon fill="#FFFFFF" points="168.369,49.117 168.369,42.655 169.252,42.655 172.787,47.718 172.787,42.655 173.613,42.655 
				173.613,49.117 172.727,49.117 169.227,44.025 169.227,49.117 			"/>
		</g>
		<g>
			<path fill="#FFFFFF" d="M177.178,42.655c0.314,0.024,0.539,0.059,0.727,0.084c0.41,0.093,0.729,0.242,1.01,0.464
				c0.35,0.299,0.598,0.672,0.789,1.095c0.158,0.455,0.254,0.976,0.254,1.554c0,0.485-0.064,0.916-0.191,1.289
				c-0.125,0.39-0.254,0.697-0.443,0.941c-0.188,0.24-0.408,0.453-0.625,0.577c-0.195,0.156-0.48,0.271-0.793,0.339
				c-0.223,0.055-0.475,0.089-0.727,0.089v-0.765c0.252,0,0.441-0.056,0.6-0.093c0.25-0.091,0.439-0.213,0.602-0.33
				c0.223-0.216,0.375-0.493,0.471-0.832c0.125-0.33,0.195-0.755,0.195-1.243c0-0.667-0.131-1.188-0.348-1.553
				c-0.227-0.373-0.508-0.616-0.822-0.732c-0.193-0.065-0.41-0.097-0.697-0.126V42.655z M174.432,49.117v-6.462h2.309
				c0.152,0,0.313,0,0.438,0v0.758c-0.125,0-0.285,0-0.475,0h-1.389v4.945h1.426c0.152,0,0.313-0.036,0.438-0.036v0.765
				c-0.125,0.03-0.221,0.03-0.346,0.03H174.432z"/>
		</g>
		<g>
			<path fill="#FFFFFF" d="M184.91,42.655h0.129c0.502,0,0.916,0.059,1.234,0.177c0.311,0.149,0.531,0.333,0.723,0.61
				c0.156,0.277,0.244,0.55,0.244,0.855c0,0.273-0.057,0.546-0.215,0.791c-0.152,0.249-0.408,0.43-0.691,0.581
				c0.381,0.123,0.691,0.306,0.906,0.584c0.229,0.271,0.324,0.608,0.324,0.974c0,0.303-0.063,0.578-0.193,0.854
				c-0.131,0.24-0.277,0.453-0.473,0.607c-0.219,0.126-0.441,0.241-0.754,0.309c-0.283,0.055-0.631,0.119-1.074,0.119h-0.16v-0.759
				h0.16c0.289,0,0.5-0.036,0.602-0.036c0.219-0.056,0.375-0.093,0.502-0.184c0.16-0.088,0.254-0.207,0.344-0.365
				c0.1-0.149,0.129-0.332,0.129-0.546c0-0.243-0.063-0.431-0.189-0.609c-0.123-0.189-0.283-0.306-0.535-0.397
				c-0.219-0.064-0.537-0.092-0.979-0.092h-0.033v-0.766c0.35,0,0.631-0.025,0.793-0.09c0.219-0.062,0.408-0.149,0.502-0.304
				c0.129-0.153,0.189-0.333,0.189-0.582c0-0.207-0.061-0.396-0.189-0.544c-0.094-0.155-0.25-0.278-0.443-0.342
				c-0.191-0.06-0.469-0.089-0.852-0.089V42.655z M182.539,49.117v-6.462h2.371v0.758c-0.063,0-0.125,0-0.156,0h-1.324v1.95h1.418
				h0.063v0.766h-1.48v2.229h1.48v0.759H182.539z"/>
		</g>
		<g>
			<path fill="#FFFFFF" d="M192.521,42.655h0.883v3.718c0,0.677-0.061,1.157-0.219,1.559c-0.162,0.361-0.443,0.699-0.824,0.912
				c-0.408,0.243-0.918,0.364-1.549,0.364c-0.627,0-1.164-0.091-1.549-0.302c-0.406-0.217-0.691-0.516-0.848-0.918
				c-0.191-0.398-0.252-0.921-0.252-1.615v-3.718h0.885v3.718c0,0.577,0.064,0.978,0.158,1.251c0.092,0.242,0.281,0.458,0.566,0.605
				c0.25,0.161,0.564,0.211,0.947,0.211c0.664,0,1.104-0.147,1.389-0.424c0.283-0.267,0.412-0.818,0.412-1.644V42.655z"/>
		</g>
		<g>
			<path fill="#FFFFFF" d="M193.938,47.05l0.822-0.1c0.031,0.337,0.127,0.605,0.283,0.8c0.158,0.205,0.379,0.389,0.664,0.517
				c0.313,0.124,0.664,0.174,1.041,0.174c0.314,0,0.629-0.029,0.885-0.147c0.254-0.087,0.445-0.211,0.57-0.394
				c0.123-0.149,0.191-0.344,0.191-0.549c0-0.183-0.068-0.366-0.191-0.516c-0.098-0.158-0.316-0.278-0.6-0.406
				c-0.162-0.056-0.572-0.146-1.172-0.3c-0.631-0.153-1.039-0.277-1.291-0.396c-0.316-0.184-0.57-0.369-0.729-0.608
				c-0.158-0.247-0.219-0.519-0.219-0.792c0-0.34,0.094-0.644,0.285-0.919c0.186-0.305,0.471-0.513,0.85-0.635
				c0.346-0.154,0.756-0.241,1.203-0.241c0.5,0,0.941,0.087,1.324,0.241c0.373,0.149,0.664,0.362,0.848,0.664
				c0.225,0.309,0.318,0.642,0.352,1.04l-0.852,0.058c-0.033-0.426-0.189-0.73-0.479-0.94c-0.252-0.214-0.629-0.308-1.131-0.308
				c-0.537,0-0.947,0.094-1.201,0.273c-0.223,0.217-0.35,0.427-0.35,0.706c0,0.211,0.098,0.422,0.258,0.572
				c0.154,0.152,0.625,0.313,1.322,0.464c0.723,0.142,1.232,0.271,1.482,0.391c0.377,0.184,0.695,0.401,0.85,0.675
				c0.195,0.245,0.287,0.577,0.287,0.914s-0.092,0.668-0.287,0.979c-0.217,0.296-0.498,0.509-0.877,0.7
				c-0.385,0.15-0.828,0.241-1.297,0.241c-0.604,0-1.107-0.091-1.516-0.241c-0.412-0.191-0.725-0.432-0.979-0.761
				C194.063,47.838,193.938,47.466,193.938,47.05z"/>
		</g>
		<g>
			<rect x="199.969" y="42.655" fill="#FFFFFF" width="0.879" height="6.462"/>
		</g>
		<g>
			<polygon fill="#FFFFFF" points="201.734,49.117 201.734,42.655 202.652,42.655 206.156,47.718 206.156,42.655 207.006,42.655 
				207.006,49.117 206.094,49.117 202.586,44.025 202.586,49.117 			"/>
		</g>
		<g>
			<polygon fill="#FFFFFF" points="207.863,49.117 207.863,42.655 212.688,42.655 212.688,43.413 208.742,43.413 208.742,45.403 
				212.434,45.403 212.434,46.156 208.742,46.156 208.742,48.358 212.852,48.358 212.852,49.117 			"/>
		</g>
		<g>
			<path fill="#FFFFFF" d="M213.129,47.05l0.824-0.1c0.029,0.337,0.125,0.605,0.281,0.8c0.129,0.205,0.344,0.389,0.666,0.517
				c0.313,0.124,0.627,0.174,1.037,0.174c0.316,0,0.637-0.029,0.885-0.147c0.252-0.087,0.443-0.211,0.57-0.394
				c0.127-0.149,0.189-0.344,0.189-0.549c0-0.183-0.063-0.366-0.189-0.516c-0.127-0.158-0.318-0.278-0.6-0.406
				c-0.16-0.056-0.57-0.146-1.17-0.3c-0.629-0.153-1.045-0.277-1.293-0.396c-0.316-0.184-0.568-0.369-0.725-0.608
				c-0.16-0.247-0.219-0.519-0.219-0.792c0-0.34,0.09-0.644,0.281-0.919c0.188-0.305,0.471-0.513,0.822-0.635
				c0.379-0.154,0.791-0.241,1.227-0.241c0.506,0,0.949,0.087,1.324,0.241c0.387,0.149,0.666,0.362,0.854,0.664
				c0.221,0.309,0.318,0.642,0.348,1.04l-0.85,0.058c-0.064-0.426-0.193-0.73-0.473-0.94c-0.254-0.214-0.637-0.308-1.17-0.308
				c-0.537,0-0.916,0.094-1.172,0.273c-0.215,0.217-0.344,0.427-0.344,0.706c0,0.211,0.057,0.422,0.256,0.572
				c0.156,0.152,0.596,0.313,1.324,0.464c0.725,0.142,1.199,0.271,1.486,0.391c0.375,0.184,0.66,0.401,0.848,0.675
				c0.191,0.245,0.287,0.577,0.287,0.914s-0.096,0.668-0.32,0.979c-0.186,0.296-0.471,0.509-0.85,0.7
				c-0.375,0.15-0.822,0.241-1.297,0.241c-0.596,0-1.1-0.091-1.51-0.241c-0.41-0.191-0.725-0.432-0.982-0.761
				C213.256,47.838,213.129,47.466,213.129,47.05z"/>
		</g>
		<g>
			<path fill="#FFFFFF" d="M218.689,47.05l0.85-0.1c0.029,0.337,0.125,0.605,0.252,0.8c0.156,0.205,0.379,0.389,0.691,0.517
				c0.283,0.124,0.633,0.174,1.012,0.174c0.35,0,0.637-0.029,0.883-0.147c0.287-0.087,0.477-0.211,0.604-0.394
				c0.123-0.149,0.189-0.344,0.189-0.549c0-0.183-0.066-0.366-0.189-0.516c-0.127-0.158-0.316-0.278-0.604-0.406
				c-0.189-0.056-0.568-0.146-1.195-0.3c-0.598-0.153-1.049-0.277-1.293-0.396c-0.32-0.184-0.539-0.369-0.697-0.608
				c-0.162-0.247-0.256-0.519-0.256-0.792c0-0.34,0.094-0.644,0.287-0.919c0.189-0.305,0.471-0.513,0.852-0.635
				c0.379-0.154,0.791-0.241,1.232-0.241c0.502,0,0.916,0.087,1.295,0.241c0.379,0.149,0.695,0.362,0.883,0.664
				c0.191,0.309,0.316,0.642,0.316,1.04l-0.82,0.058c-0.068-0.426-0.225-0.73-0.477-0.94c-0.252-0.214-0.66-0.308-1.166-0.308
				c-0.537,0-0.914,0.094-1.168,0.273c-0.254,0.217-0.379,0.427-0.379,0.706c0,0.211,0.098,0.422,0.283,0.572
				c0.16,0.152,0.602,0.313,1.324,0.464c0.732,0.142,1.203,0.271,1.484,0.391c0.383,0.184,0.664,0.401,0.855,0.675
				c0.186,0.245,0.283,0.577,0.283,0.914s-0.127,0.668-0.314,0.979c-0.193,0.296-0.506,0.509-0.887,0.7
				c-0.377,0.15-0.789,0.241-1.293,0.241c-0.6,0-1.104-0.091-1.514-0.241c-0.412-0.191-0.73-0.432-0.949-0.761
				C218.844,47.838,218.719,47.466,218.689,47.05z"/>
		</g>
		<g>
			<path fill="#FFFFFF" d="M230.994,42.655h0.879v3.718c0,0.677-0.055,1.157-0.217,1.559c-0.158,0.361-0.439,0.699-0.818,0.912
				c-0.41,0.243-0.912,0.364-1.582,0.364c-0.596,0-1.133-0.091-1.514-0.302c-0.408-0.217-0.689-0.516-0.846-0.918
				c-0.193-0.398-0.258-0.921-0.258-1.615v-3.718h0.889v3.718c0,0.577,0.029,0.978,0.156,1.251c0.094,0.242,0.283,0.458,0.535,0.605
				c0.283,0.161,0.6,0.211,0.979,0.211c0.66,0,1.105-0.147,1.391-0.424c0.283-0.267,0.406-0.818,0.406-1.644V42.655z"/>
		</g>
		<g>
			<polygon fill="#FFFFFF" points="232.701,49.117 232.701,42.655 233.619,42.655 237.113,47.718 237.113,42.655 237.973,42.655 
				237.973,49.117 237.059,49.117 233.551,44.025 233.551,49.117 			"/>
		</g>
		<g>
			<rect x="238.953" y="42.655" fill="#FFFFFF" width="0.875" height="6.462"/>
		</g>
		<g>
			<path fill="#FFFFFF" d="M242.641,49.117l-2.586-6.462h0.977l1.738,4.695c0.127,0.367,0.256,0.731,0.346,1.04
				c0.096-0.34,0.225-0.707,0.352-1.04l1.793-4.695h0.916l-2.615,6.462H242.641z"/>
		</g>
		<g>
			<polygon fill="#FFFFFF" points="246.334,49.117 246.334,42.655 251.168,42.655 251.168,43.413 247.223,43.413 247.223,45.403 
				250.916,45.403 250.916,46.156 247.223,46.156 247.223,48.358 251.326,48.358 251.326,49.117 			"/>
		</g>
		<g>
			<path fill="#FFFFFF" d="M254.572,42.655h0.283c0.604,0,1.08,0.059,1.359,0.177c0.316,0.12,0.566,0.309,0.762,0.61
				c0.188,0.277,0.279,0.611,0.279,0.98c0,0.454-0.154,0.817-0.475,1.156c-0.313,0.303-0.783,0.521-1.418,0.577
				c0.219,0.127,0.412,0.217,0.539,0.334c0.25,0.218,0.502,0.524,0.729,0.86l1.162,1.767h-1.1l-0.887-1.344
				c-0.252-0.395-0.475-0.706-0.635-0.911c-0.188-0.186-0.316-0.338-0.471-0.434c-0.033-0.031-0.094-0.056-0.129-0.056v-0.888h0.129
				c0.377,0,0.721-0.036,0.949-0.122c0.215-0.056,0.381-0.179,0.502-0.367c0.127-0.18,0.191-0.359,0.191-0.573
				c0-0.309-0.129-0.548-0.346-0.768c-0.223-0.182-0.605-0.297-1.109-0.297h-0.316V42.655z M251.922,49.117v-6.462h2.65v0.703
				h-1.793v2.127h1.793v0.888c-0.096-0.061-0.188-0.09-0.25-0.09c-0.127-0.029-0.283-0.029-0.502-0.029h-1.041v2.863H251.922z"/>
		</g>
		<g>
			<path fill="#FFFFFF" d="M257.699,47.05l0.82-0.1c0.033,0.337,0.125,0.605,0.289,0.8c0.123,0.205,0.344,0.389,0.658,0.517
				c0.313,0.124,0.631,0.174,1.01,0.174c0.35,0,0.633-0.029,0.912-0.147c0.26-0.087,0.447-0.211,0.572-0.394
				c0.125-0.149,0.188-0.344,0.188-0.549c0-0.183-0.063-0.366-0.188-0.516c-0.125-0.158-0.313-0.278-0.602-0.406
				c-0.186-0.056-0.568-0.146-1.195-0.3c-0.604-0.153-1.045-0.277-1.266-0.396c-0.346-0.184-0.564-0.369-0.725-0.608
				c-0.154-0.247-0.221-0.519-0.221-0.792c0-0.34,0.09-0.644,0.283-0.919c0.189-0.305,0.477-0.513,0.824-0.635
				c0.377-0.154,0.783-0.241,1.225-0.241c0.506,0,0.949,0.087,1.328,0.241c0.381,0.149,0.662,0.362,0.854,0.664
				c0.219,0.309,0.313,0.642,0.35,1.04l-0.855,0.058c-0.061-0.426-0.221-0.73-0.475-0.94c-0.252-0.214-0.66-0.308-1.168-0.308
				c-0.539,0-0.912,0.094-1.166,0.273c-0.254,0.217-0.344,0.427-0.344,0.706c0,0.211,0.061,0.422,0.252,0.572
				c0.154,0.152,0.592,0.313,1.32,0.464c0.729,0.142,1.203,0.271,1.486,0.391c0.381,0.184,0.66,0.401,0.854,0.675
				c0.186,0.245,0.281,0.577,0.281,0.914s-0.096,0.668-0.316,0.979c-0.188,0.296-0.477,0.509-0.883,0.7
				c-0.379,0.15-0.791,0.241-1.262,0.241c-0.6,0-1.135-0.091-1.518-0.241c-0.404-0.191-0.754-0.432-0.98-0.761
				C257.826,47.838,257.699,47.466,257.699,47.05z"/>
		</g>
		<g>
			<rect x="263.697" y="42.655" fill="#FFFFFF" width="0.883" height="6.462"/>
		</g>
		<g>
			<polygon fill="#FFFFFF" points="267.203,49.117 267.203,43.413 264.99,43.413 264.99,42.655 270.295,42.655 270.295,43.413 
				268.086,43.413 268.086,49.117 			"/>
		</g>
		<g>
			<path fill="#FFFFFF" d="M272.441,49.117v-2.744l-2.59-3.718h1.072l1.326,1.95c0.254,0.364,0.473,0.732,0.697,1.093
				c0.186-0.335,0.438-0.729,0.725-1.158l1.295-1.885h1.008l-2.648,3.718v2.744H272.441z"/>
		</g>
	</g>
</g>
<g>
	<g>
		<g>
			<path fill="#FFFFFF" d="M26.649,51.275c-3.486,0-6.87-0.67-10.056-1.985c-3.079-1.274-5.843-3.094-8.218-5.415
				c-2.373-2.319-4.238-5.023-5.542-8.032c-1.35-3.118-2.032-6.433-2.032-9.842c0-3.413,0.683-6.726,2.032-9.845
				c1.304-3.008,3.169-5.711,5.542-8.031c2.375-2.322,5.139-4.142,8.218-5.416c3.186-1.316,6.57-1.984,10.056-1.984
				c3.491,0,6.875,0.668,10.061,1.984c3.077,1.274,5.842,3.094,8.216,5.416c2.375,2.32,4.238,5.023,5.542,8.031
				c1.348,3.119,2.035,6.432,2.035,9.845c0,3.409-0.687,6.724-2.035,9.842c-1.304,3.009-3.167,5.713-5.542,8.032
				c-2.374,2.321-5.139,4.141-8.216,5.415C33.523,50.605,30.14,51.275,26.649,51.275L26.649,51.275z M26.649,1.746
				C12.96,1.746,1.82,12.625,1.82,26.001c0,13.375,11.141,24.254,24.829,24.254c13.692,0,24.833-10.879,24.833-24.254
				C51.481,12.625,40.341,1.746,26.649,1.746L26.649,1.746z"/>
		</g>
	</g>
	<g>
		<g>
			<g>
				<g>
					<path fill-rule="evenodd" clip-rule="evenodd" fill="#FFFFFF" d="M29.691,44.502c0.339-0.066,0.586-0.23,0.8,0.144
						c-0.121,0.232-0.328,0.547-0.602,0.646c-0.091-0.186,0.114-0.272,0.092-0.432C29.882,44.741,29.685,44.715,29.691,44.502z"/>
				</g>
				<g>
					<path fill-rule="evenodd" clip-rule="evenodd" fill="#FFFFFF" d="M30.657,45.761c0.118-0.118,0.399-0.135,0.541-0.075
						c0.085,0.104-0.022,0.146,0,0.23c0.493-0.079,0.481,0.317,0.52,0.745c0.06,0.639,0.5,1.705,0.149,2.082
						c-0.383-0.028-0.875-0.146-1.092-0.423c0.297-0.136,0.582,0.144,0.831-0.103c-0.063-0.638-0.119-1.276-0.272-1.945
						c-0.196-0.031-0.478,0.212-0.647,0.398c0.055,0.062,0.188-0.102,0.246-0.046c0.028,0.048,0.044,0.125,0.093,0.107
						c0.003,0.173-0.07,0.319-0.202,0.449c0.104,0.121,0.272,0.056,0.37,0.201c0.064,0.116-0.045,0.172-0.018,0.276
						c-0.239,0.196-0.554,0.709-0.877,0.626c0.03-0.305,0.54-0.447,0.493-0.781c-0.139-0.091-0.26,0.1-0.366,0.029
						c-0.096-0.205,0.133-0.297,0.153-0.462c-0.143,0.001-0.16,0.268-0.232,0.38c-0.151,0.048-0.307,0.104-0.401-0.032
						c0.22-0.183,0.523-0.42,0.695-0.69c-0.354,0.18-0.577,0.629-1.125,0.827c-0.057-0.052-0.131-0.064-0.169-0.187
						c0.588-0.471,1.212-0.969,1.59-1.44c-0.475-0.007-0.611,0.551-1.128,0.674c-0.102-0.173,0.035-0.405,0.189-0.556
						c0.317-0.305,0.829-0.702,1.032-1.011c-0.01-0.119-0.11,0.027-0.122-0.092c0.128-0.139,0.299-0.263,0.416-0.401
						c0.13,0.051,0.128,0.028,0.216,0.199C31.407,45.197,30.813,45.336,30.657,45.761z"/>
				</g>
				<g>
					<path fill-rule="evenodd" clip-rule="evenodd" fill="#FFFFFF" d="M30.613,45.127c-0.221,0.318-0.528,0.521-0.85,0.767
						c-0.283,0.407-0.747,0.691-1.126,0.979c-0.156,0.008-0.336-0.145-0.353-0.322c0.063-0.07,0.209-0.182,0.31-0.155
						c0.05-0.08,0.148-0.138,0.201-0.215C29.418,45.975,30.015,45.348,30.613,45.127z"/>
				</g>
				<g>
					<path fill-rule="evenodd" clip-rule="evenodd" fill="#FFFFFF" d="M29.482,47.727c0.452,0.246,0.358,0.869,0.075,1.157
						C29.18,48.634,29.531,48.106,29.482,47.727z"/>
				</g>
			</g>
		</g>
		<g>
			<g>
				<g>
					<path fill-rule="evenodd" clip-rule="evenodd" fill="#FFFFFF" d="M35.895,44.435c0.087-0.056,0.108-0.275,0.221-0.421
						c0.167-0.034,0.267-0.01,0.422,0.07c-0.136,0.278-0.365,0.595-0.578,0.881c0.134,0.768,0.072,2.426-1.077,2.346
						c0.316-0.438,0.759-1.001,0.685-1.594c-0.153,0.196-0.211,0.333-0.377,0.57c-0.179,0.081-0.556-0.097-0.735-0.271
						c0.179-0.203,0.399-0.311,0.555-0.478c0.126-0.136,0.367-0.361,0.435-0.536c0.085-0.231-0.162-0.99-0.319-1.354
						c-0.083-0.191-0.253-0.291-0.217-0.534c0.02-0.051,0.056-0.039,0.076-0.072C35.89,43.316,35.563,43.979,35.895,44.435z"/>
				</g>
				<g>
					<path fill-rule="evenodd" clip-rule="evenodd" fill="#FFFFFF" d="M36.043,45.24c0.033-0.033,0.079-0.021,0.109-0.059
						c0.192,0.003,0.225,0.196,0.342,0.294c0.4,0.342,0.81,0.425,1.305,0.418c-0.013,0.284-0.421,0.542-0.646,0.656
						C36.678,46.146,36.354,45.695,36.043,45.24z"/>
				</g>
			</g>
		</g>
		<g>
			<g>
				<path fill-rule="evenodd" clip-rule="evenodd" fill="#FFFFFF" d="M40.357,43.833c-0.011-0.04,0-0.065,0.027-0.077
					c0.235-0.405,0.383-1.018,0.709-1.405c0.158-0.184,0.434-0.488,0.736-0.429c0.071,0.33-0.227,0.383-0.396,0.53
					c0.26,0.313,0.808,0.414,0.737,0.873c-0.057,0.391-0.642,0.455-1.066,0.657c0.202-0.314,0.718-0.392,0.753-0.829
					c-0.136-0.199-0.271-0.398-0.532-0.437C40.923,43.064,41.108,43.954,40.357,43.833z"/>
			</g>
			<g>
				<path fill-rule="evenodd" clip-rule="evenodd" fill="#FFFFFF" d="M40.063,40.177c0.002-0.146-0.073-0.186-0.143-0.233
					c-0.533,0.119,0.034,0.913-0.565,1.131c-0.217,0.079-0.538-0.114-0.695,0.205c0.239,0.125,0.822,0.174,0.718,0.48
					c0.126-0.025,0.217-0.006,0.265,0.07c-0.025,0.119,0.011,0.284-0.099,0.339c-0.008-0.125-0.123-0.112-0.14-0.232
					c-0.123,0.005-0.333-0.035-0.429,0.06c0.299,0.171,0.451,0.53,0.782,0.653c0.256-0.222-0.172-0.708,0.161-0.929
					c-0.064-0.149-0.105-0.37,0.126-0.38c0.055,0.177-0.043,0.243-0.016,0.399c0.23-0.081,0.158-0.39,0.488-0.394
					c0.013,0.636-0.433,0.923-0.435,1.546c-0.232,0.182-0.396,0.561-0.354,0.85c0.135,0.075,0.281-0.048,0.387-0.094
					c0.334-0.702,0.445-1.571,0.93-2.158c0.045,0.387-0.078,0.619-0.094,0.881c0.159-0.004,0.181-0.113,0.142-0.273
					c0.163-0.247,0.331-0.494,0.313-0.877c-0.054-0.028-0.085-0.083-0.125-0.128c-0.084,0.014-0.167,0.025-0.25,0.035
					c-0.112,0.32-0.323,0.562-0.5,0.832c0.167-0.307,0.173-0.741,0.527-0.907c-0.116-0.497,0.274-1.577-0.469-1.531
					C40.443,39.764,40.109,39.862,40.063,40.177z M39.518,41.197c-0.028-0.108,0.104-0.09,0.165-0.131
					C39.664,41.144,39.622,41.277,39.518,41.197z M40.806,40.834c-0.102-0.015-0.101-0.173-0.175-0.229
					c-0.114,0.021-0.278,0.003-0.234,0.141c-0.407-0.279-0.031-0.684,0.235-0.899C40.887,40.106,40.852,40.435,40.806,40.834z"/>
			</g>
		</g>
		<g>
			<g>
				<path fill-rule="evenodd" clip-rule="evenodd" fill="#FFFFFF" d="M20.575,44.068c-0.33,0.005-0.262,0.222-0.57,0.264
					c0.056-0.268-0.268-0.678-0.234-0.954C20.038,43.28,20.591,43.626,20.575,44.068z"/>
			</g>
			<g>
				<path fill-rule="evenodd" clip-rule="evenodd" fill="#FFFFFF" d="M20.733,44.768c-1.03-0.099-2.285,0.41-3.002-0.53
					c0.308-0.275,0.625,0.051,0.975-0.083c0.644,0.264,1.417,0.182,2.03,0.532C20.761,44.724,20.754,44.75,20.733,44.768z"/>
			</g>
			<g>
				<path fill-rule="evenodd" clip-rule="evenodd" fill="#FFFFFF" d="M18.573,46.33c0.151,0.012,0.463-0.081,0.582-0.227
					c-0.011-0.221-0.271-0.156-0.237-0.255c0.234-0.035,0.529-0.235,0.749-0.225c0.079-0.68-0.885-0.385-1.261-0.357
					c-0.1-0.049-0.037-0.178-0.154-0.251c-0.411,0.336-0.796,0.893-0.586,1.283c-0.272,0.014-0.588,0.137-0.81,0.008
					c-0.103,0.214-0.256,0.506-0.054,0.675c0.278-0.065,0.472-0.176,0.702-0.24c0.251,0.215,0.112,0.632,0.387,0.758
					C18.303,47.182,18.253,46.688,18.573,46.33z M17.703,46.65c0.116-0.041,0.148-0.155,0.239-0.275
					c-0.031-0.111-0.129-0.054-0.195-0.07c0.288-0.145,0.492-0.438,0.644-0.541c-0.029,0.185-0.371,0.306-0.132,0.509
					c-0.128,0.172-0.167,0.382-0.364,0.533C17.843,46.724,17.749,46.753,17.703,46.65z"/>
			</g>
			<g>
				<path fill-rule="evenodd" clip-rule="evenodd" fill="#FFFFFF" d="M19.081,47.495c-0.537,0.142-0.456-0.683-0.25-0.965
					C19.324,46.479,19.321,47.259,19.081,47.495z"/>
			</g>
		</g>
		<g>
			<g>
				<g>
					<path fill-rule="evenodd" clip-rule="evenodd" fill="#FFFFFF" d="M24.356,47.516c0.317-0.05,0.715-0.202,1.103,0.039
						c-0.018,0.058,0,0.099,0.044,0.126c-0.065,0.284-0.247,0.367-0.434,0.451c-0.491-0.17-0.788-0.064-1.169,0.057
						c-0.703-0.004-0.912,0.045-1.616-0.406c0.193-0.377,0.734-0.149,1.1-0.229c0.397-0.339,0.832-0.611,1.092-1.183
						c-0.271-0.073-1.072,0.166-1.132-0.349c0.575-0.162,1.294-0.085,1.794-0.379c0.357,0.08,0.477,0.291,0.548,0.528
						C25.221,46.585,24.693,47.047,24.356,47.516z"/>
				</g>
			</g>
		</g>
		<g>
			<g>
				<path fill-rule="evenodd" clip-rule="evenodd" fill="#FFFFFF" d="M13.125,43.643c0.08,0.336,0.606,0.361,1.045,0.451
					c0.05,0.153,0.078,0.194,0.007,0.38c-0.533,0.202-1.305-0.257-1.622-0.592c0.068-0.556,0.364-0.754,0.716-1.075
					c0.611-0.555,1.311-1.148,1.947-1.604c0.024-0.128,0.03-0.289,0.133-0.313c0.37,0.126,0.352,0.58,0.181,0.861
					c-0.14,0.229-0.609,0.25-0.621,0.526c0.18,0.13,1.042-0.012,0.926,0.503c-0.373,0.349-0.944-0.122-1.325-0.162
					C13.978,42.855,13.501,43.18,13.125,43.643z"/>
			</g>
			<g>
				<path fill-rule="evenodd" clip-rule="evenodd" fill="#FFFFFF" d="M11.512,43.203c-0.066-0.225,0.138-0.319,0.229-0.447
					c-0.249,0.018-0.589,0.146-0.812-0.073c-0.075-0.411,0.246-0.425,0.488-0.626c0.349-0.282,0.504-0.692,0.906-0.849
					c0.088-0.145-0.039-0.418,0.109-0.395c0.215-0.175,0.407,0.361,0.54,0.548c0.444-0.385,0.832-0.854,1.334-1.147
					c0.022,0.626-0.28,0.904-0.611,1.317c-0.233,0.283-0.438,0.623-0.689,0.889c-0.133,0.143-0.389,0.265-0.564,0.425
					C12.156,43.101,12.006,43.424,11.512,43.203z M11.908,42.259c0.238-0.007,0.591-0.092,0.552-0.35
					C12.253,41.96,11.9,42.048,11.908,42.259z"/>
			</g>
		</g>
	</g>
	<g>
		<g>
			<path fill="#FFFFFF" d="M9.379,36.218l-2.234,1.149L6.75,36.602c-0.239-0.47-0.174-0.813,0.2-1.035
				c0.239-0.11,0.46-0.073,0.671,0.116l0.011-0.006c-0.069-0.335,0.047-0.587,0.348-0.748c0.374-0.166,0.708,0.009,1.003,0.524
				L9.379,36.218z M7.639,36.132c-0.099-0.189-0.232-0.242-0.403-0.154c-0.174,0.09-0.215,0.229-0.116,0.419l0.174,0.343
				l0.521-0.267L7.639,36.132z M8.603,35.634c-0.107-0.251-0.264-0.317-0.469-0.202c-0.221,0.104-0.262,0.271-0.122,0.505
				l0.176,0.339l0.592-0.302L8.603,35.634z"/>
		</g>
		<g>
			<path fill="#FFFFFF" d="M6.113,35.285L5.55,33.864l0.391-0.155l0.38,0.962l0.542-0.215l-0.352-0.894l0.39-0.153l0.355,0.895
				l0.615-0.247l-0.393-0.998l0.392-0.152l0.576,1.455L6.113,35.285z"/>
		</g>
		<g>
			<path fill="#FFFFFF" d="M7.607,32.057l0.151,0.474l-2.395,0.755l-0.149-0.469L7.607,32.057z"/>
		</g>
		<g>
			<path fill="#FFFFFF" d="M4.724,30.946l1.632-0.399c0.542-0.125,0.879,0.054,1.014,0.539c0.123,0.469-0.082,0.778-0.622,0.938
				l-0.117-0.479c0.299-0.071,0.427-0.196,0.382-0.373c-0.037-0.157-0.209-0.213-0.514-0.166c-0.018,0.006-0.03,0.009-0.04,0.011
				l-1.621,0.398L4.724,30.946z"/>
		</g>
		<g>
			<path fill="#FFFFFF" d="M7.004,29.45l0.086,0.489l-2.476,0.43l-0.082-0.485L7.004,29.45z"/>
		</g>
		<g>
			<path fill="#FFFFFF" d="M6.799,27.696l-2.002,1.071l0.014,0.012l2.07-0.184l0.038,0.454l-2.501,0.223l-0.062-0.726l1.896-1.034
				L6.237,27.5l-1.959,0.175l-0.041-0.456l2.502-0.221L6.799,27.696z"/>
		</g>
		<g>
			<path fill="#FFFFFF" d="M5.842,25.493L5.422,25.48l0.032-0.926l1.26,0.042c0.049,0.167,0.071,0.335,0.064,0.508
				c0.015,0.132,0.017,0.307,0.01,0.518c-0.067,0.701-0.504,1.043-1.311,1.031c-0.822-0.042-1.248-0.413-1.28-1.116
				c0.023-0.716,0.308-1.059,0.85-1.034L5.03,25.019c-0.281-0.006-0.425,0.142-0.436,0.445c-0.005,0.419,0.295,0.645,0.9,0.672
				c0.598,0.013,0.911-0.189,0.931-0.609c0.004-0.125-0.009-0.27-0.041-0.434c0.01,0.009,0.01,0.001,0.003-0.024l-0.531-0.019
				L5.842,25.493z"/>
		</g>
		<g>
			<path fill="#FFFFFF" d="M4.641,21.94l0.427-1.802l0.41,0.099L5.32,20.896l2.032,0.481L7.238,21.86l-2.032-0.482l-0.158,0.658
				L4.641,21.94z"/>
		</g>
		<g>
			<path fill="#FFFFFF" d="M5.206,19.689l0.493-1.446l0.398,0.136l-0.335,0.98l0.555,0.188l0.309-0.912l0.397,0.138l-0.31,0.91
				l0.629,0.213l0.346-1.015l0.399,0.135l-0.507,1.485L5.206,19.689z"/>
		</g>
		<g>
			<path fill="#FFFFFF" d="M7.224,16.773c-0.285-0.111-0.492-0.043-0.617,0.208c-0.095,0.254,0.125,0.513,0.66,0.778
				c0.541,0.226,0.877,0.224,1.006-0.017c0.112-0.265,0.03-0.467-0.247-0.601l0.215-0.474c0.493,0.253,0.614,0.661,0.366,1.226
				c-0.272,0.555-0.79,0.664-1.556,0.335C6.289,17.852,6.02,17.38,6.25,16.817c0.262-0.552,0.656-0.723,1.19-0.516L7.224,16.773z"/>
		</g>
		<g>
			<path fill="#FFFFFF" d="M9.123,16.743L6.966,15.46l0.244-0.412l0.854,0.506l0.441-0.746l-0.851-0.504l0.25-0.425l2.157,1.285
				l-0.246,0.413l-0.944-0.562l-0.445,0.751l0.943,0.563L9.123,16.743z"/>
		</g>
		<g>
			<path fill="#FFFFFF" d="M11.118,13.741l-2.199-0.567l0.002,0.019l1.648,1.264l-0.278,0.361l-1.991-1.526l0.441-0.578l2.098,0.521
				l0-0.019l-1.564-1.197l0.279-0.363l1.991,1.528L11.118,13.741z"/>
		</g>
		<g>
			<path fill="#FFFFFF" d="M10.856,12.067c-0.594-0.619-0.65-1.187-0.167-1.706c0.502-0.486,1.071-0.438,1.7,0.148
				c0.574,0.601,0.626,1.156,0.147,1.666C12.023,12.675,11.463,12.639,10.856,12.067z M11.223,11.696
				c0.43,0.425,0.783,0.498,1.052,0.225c0.266-0.267,0.18-0.616-0.25-1.042c-0.438-0.43-0.792-0.511-1.058-0.242
				C10.698,10.912,10.783,11.266,11.223,11.696z"/>
		</g>
		<g>
			<path fill="#FFFFFF" d="M13.559,11.157L11.962,9.22l0.372-0.305l1.329,1.611L14.423,9.9l0.268,0.325L13.559,11.157z"/>
		</g>
		<g>
			<path fill="#FFFFFF" d="M14.156,9.053c-0.45-0.733-0.386-1.302,0.193-1.704c0.593-0.371,1.138-0.203,1.631,0.5
				c0.439,0.709,0.372,1.259-0.202,1.661C15.171,9.889,14.63,9.736,14.156,9.053z M14.59,8.765c0.334,0.508,0.665,0.654,0.986,0.44
				c0.316-0.209,0.306-0.567-0.028-1.071c-0.34-0.516-0.666-0.667-0.983-0.458C14.243,7.89,14.252,8.252,14.59,8.765z"/>
		</g>
		<g>
			<path fill="#FFFFFF" d="M17.527,7.414l-0.19-0.378l0.83-0.413l0.562,1.13c-0.124,0.122-0.263,0.223-0.415,0.299
				c-0.112,0.074-0.262,0.159-0.454,0.256c-0.647,0.271-1.156,0.048-1.529-0.663c-0.352-0.744-0.228-1.299,0.374-1.658
				c0.642-0.318,1.079-0.235,1.312,0.253l-0.462,0.235C17.431,6.224,17.23,6.165,16.958,6.3c-0.371,0.196-0.427,0.567-0.162,1.114
				c0.273,0.53,0.599,0.706,0.98,0.528c0.11-0.056,0.23-0.134,0.361-0.242c-0.002,0.012,0.004,0.005,0.022-0.012l-0.237-0.472
				L17.527,7.414z"/>
		</g>
		<g>
			<path fill="#FFFFFF" d="M19.462,6.687l-1.315-1.326l0.544-0.2l0.839,0.923l0.052-1.25l0.466-0.169l-0.136,1.855l0.281,0.763
				L19.74,7.451L19.462,6.687z"/>
		</g>
		<g>
			<path fill="#FFFFFF" d="M22.751,6.541l0.437-2.608l0.574-0.088l1.172,2.362l-0.487,0.073l-0.25-0.496l-0.891,0.139L23.215,6.47
				L22.751,6.541z M24.011,5.388l-0.468-1.015l-0.013,0.002l-0.167,1.11L24.011,5.388z"/>
		</g>
		<g>
			<path fill="#FFFFFF" d="M26.522,6.146l-0.958-2.058l-0.01,0.013l0.069,2.075L25.166,6.19l-0.084-2.51l0.728-0.022l0.931,1.95
				l0.011-0.012l-0.065-1.968l0.455-0.015l0.083,2.509L26.522,6.146z"/>
		</g>
		<g>
			<path fill="#FFFFFF" d="M27.828,3.638L28.6,3.703c0.753,0.073,1.1,0.525,1.037,1.354c-0.077,0.82-0.49,1.206-1.247,1.148
				L27.613,6.14L27.828,3.638z M28.129,5.761l0.259,0.021c0.447,0.056,0.696-0.199,0.732-0.769c0.058-0.576-0.139-0.875-0.592-0.896
				l-0.258-0.022L28.129,5.761z"/>
		</g>
		<g>
			<path fill="#FFFFFF" d="M31.667,6.717l0.702-2.413l0.829,0.243c0.505,0.146,0.71,0.432,0.611,0.855
				c-0.081,0.249-0.262,0.386-0.544,0.408l-0.002,0.014c0.292,0.178,0.393,0.435,0.302,0.764c-0.137,0.386-0.494,0.507-1.07,0.369
				L31.667,6.717z M32.624,6.555c0.256,0.093,0.412,0.026,0.47-0.202c0.076-0.232-0.02-0.376-0.284-0.435L32.443,5.81l-0.188,0.638
				L32.624,6.555z M32.928,5.514c0.206,0.058,0.334,0,0.388-0.186c0.054-0.19-0.018-0.314-0.224-0.375l-0.367-0.106l-0.164,0.561
				L32.928,5.514z"/>
		</g>
		<g>
			<path fill="#FFFFFF" d="M36.5,5.772l-0.608,1.452c-0.264,0.565-0.693,0.737-1.284,0.508c-0.592-0.266-0.774-0.691-0.55-1.272
				l0.607-1.454l0.456,0.191l-0.528,1.266c-0.123,0.271-0.173,0.47-0.144,0.601c0.026,0.146,0.126,0.256,0.301,0.33
				c0.176,0.073,0.321,0.066,0.438-0.021c0.111-0.075,0.219-0.247,0.329-0.527l0.525-1.263L36.5,5.772z"/>
		</g>
		<g>
			<path fill="#FFFFFF" d="M37.865,7.32c0.114-0.225,0.069-0.398-0.139-0.51c-0.218-0.103-0.379-0.069-0.481,0.102
				c-0.11,0.159-0.043,0.328,0.192,0.513c0.008,0.002,0.025,0.019,0.049,0.042c0.407,0.366,0.526,0.693,0.352,0.992
				c-0.263,0.452-0.678,0.531-1.247,0.236c-0.518-0.289-0.638-0.672-0.363-1.151l0.432,0.241c-0.143,0.252-0.104,0.451,0.108,0.589
				c0.265,0.135,0.449,0.116,0.556-0.063c0.085-0.149,0.018-0.32-0.203-0.52c-0.032-0.025-0.053-0.047-0.062-0.064
				c-0.378-0.353-0.485-0.679-0.321-0.972c0.271-0.436,0.682-0.522,1.232-0.257c0.417,0.261,0.519,0.614,0.302,1.054L37.865,7.32z"
				/>
		</g>
		<g>
			<path fill="#FFFFFF" d="M38.158,9.62l-0.412-0.273l1.382-2.096l0.413,0.272L38.158,9.62z"/>
		</g>
		<g>
			<path fill="#FFFFFF" d="M39.574,10.673l0.596-2.192l-0.02,0.003l-1.283,1.632l-0.361-0.283l1.555-1.974l0.571,0.453l-0.546,2.09
				l0.021-0.003l1.214-1.546l0.359,0.282l-1.551,1.973L39.574,10.673z"/>
		</g>
		<g>
			<path fill="#FFFFFF" d="M42.154,9.571l1.09,1.072l-0.296,0.301l-0.739-0.729l-0.408,0.417l0.688,0.674l-0.296,0.3l-0.687-0.674
				l-0.463,0.475l0.763,0.752l-0.295,0.301l-1.116-1.099L42.154,9.571z"/>
		</g>
		<g>
			<path fill="#FFFFFF" d="M43.936,12.538c0.191-0.169,0.21-0.344,0.056-0.525c-0.167-0.174-0.328-0.2-0.487-0.078
				c-0.154,0.109-0.157,0.29-0.002,0.548c0.004,0.006,0.015,0.023,0.03,0.055c0.25,0.488,0.243,0.839-0.028,1.05
				c-0.41,0.33-0.827,0.252-1.251-0.228c-0.376-0.455-0.352-0.856,0.077-1.206l0.317,0.38c-0.224,0.187-0.26,0.382-0.111,0.591
				c0.196,0.22,0.376,0.268,0.542,0.144c0.134-0.112,0.131-0.3-0.005-0.558c-0.02-0.039-0.029-0.067-0.033-0.087
				c-0.223-0.466-0.206-0.806,0.051-1.021c0.414-0.312,0.827-0.244,1.243,0.203c0.296,0.396,0.262,0.76-0.098,1.091L43.936,12.538z"
				/>
		</g>
		<g>
			<path fill="#FFFFFF" d="M45.273,14.393c0.204-0.145,0.241-0.319,0.11-0.519c-0.148-0.189-0.309-0.229-0.479-0.125
				c-0.167,0.09-0.185,0.271-0.059,0.544c0.003,0.007,0.011,0.027,0.023,0.059c0.199,0.508,0.151,0.855-0.14,1.038
				c-0.439,0.289-0.846,0.168-1.216-0.355c-0.33-0.494-0.262-0.89,0.2-1.188l0.278,0.411c-0.242,0.16-0.301,0.351-0.172,0.574
				c0.172,0.243,0.344,0.306,0.523,0.197c0.143-0.097,0.16-0.279,0.052-0.553c-0.013-0.04-0.024-0.068-0.024-0.087
				c-0.173-0.488-0.122-0.826,0.158-1.011c0.442-0.266,0.848-0.156,1.216,0.329c0.251,0.426,0.181,0.785-0.212,1.078L45.273,14.393z
				"/>
		</g>
		<g>
			<path fill="#FFFFFF" d="M48.184,18.661l-1.458,0.594c-0.586,0.211-1.008,0.027-1.264-0.55c-0.228-0.612-0.057-1.041,0.516-1.291
				l1.457-0.593l0.187,0.458l-1.269,0.515c-0.283,0.106-0.457,0.213-0.53,0.324c-0.087,0.123-0.094,0.272-0.022,0.449
				c0.071,0.174,0.18,0.273,0.325,0.293c0.129,0.029,0.33-0.02,0.602-0.139l1.27-0.516L48.184,18.661z"/>
		</g>
		<g>
			<path fill="#FFFFFF" d="M46.355,21.33l1.787-1.404l-0.018-0.009l-2.003,0.544L46,20.021l2.423-0.66l0.191,0.702l-1.685,1.354
				l0.015,0.008l1.9-0.516l0.12,0.44l-2.424,0.657L46.355,21.33z"/>
		</g>
		<g>
			<path fill="#FFFFFF" d="M46.687,22.889l-0.088-0.485l2.469-0.452l0.087,0.483L46.687,22.889z"/>
		</g>
		<g>
			<path fill="#FFFFFF" d="M49.25,22.865l0.055,0.529l-1.911,0.793l0.001,0.009l2.033,0.389l0.047,0.479l-2.583-0.578l-0.052-0.531
				L49.25,22.865z"/>
		</g>
		<g>
			<path fill="#FFFFFF" d="M49.483,25.536l-0.006,1.531l-0.42-0.002l0.003-1.037l-0.583-0.001L48.47,26.99l-0.419-0.002l0.004-0.96
				l-0.666-0.005L47.386,27.1l-0.42-0.002l0.006-1.567L49.483,25.536z"/>
		</g>
		<g>
			<path fill="#FFFFFF" d="M46.898,27.951l0.053-0.488l2.496,0.259l-0.1,0.97c-0.064,0.516-0.307,0.756-0.73,0.718
				c-0.324-0.041-0.508-0.22-0.559-0.53l-0.014-0.002c-0.034,0.254-0.233,0.369-0.593,0.349c-0.038,0.004-0.066,0.007-0.085,0.004
				c-0.3-0.008-0.5,0.014-0.605,0.059l0.053-0.525c0.226-0.026,0.451-0.031,0.684-0.015c0.22,0.002,0.337-0.053,0.346-0.175
				l0.055-0.516L46.898,27.951z M48.316,28.099l-0.043,0.406c-0.022,0.229,0.082,0.356,0.316,0.38
				c0.218,0.023,0.331-0.081,0.346-0.31l0.043-0.406L48.316,28.099z"/>
		</g>
		<g>
			<path fill="#FFFFFF" d="M48.209,31.136c0.251,0.042,0.398-0.05,0.448-0.282c0.034-0.239-0.05-0.383-0.241-0.432
				c-0.183-0.053-0.327,0.058-0.433,0.338c-0.003,0.008-0.01,0.026-0.025,0.058c-0.228,0.498-0.506,0.71-0.839,0.632
				c-0.515-0.116-0.711-0.493-0.597-1.125c0.123-0.578,0.453-0.806,0.991-0.684l-0.103,0.48c-0.283-0.061-0.46,0.036-0.529,0.278
				c-0.052,0.292,0.021,0.465,0.223,0.516c0.168,0.034,0.313-0.081,0.437-0.351c0.016-0.039,0.032-0.063,0.042-0.078
				c0.229-0.464,0.507-0.662,0.834-0.594c0.498,0.133,0.704,0.497,0.614,1.104c-0.131,0.475-0.436,0.673-0.918,0.598L48.209,31.136z
				"/>
		</g>
		<g>
			<path fill="#FFFFFF" d="M46.099,32.096l0.137-0.478l2.412,0.702l-0.138,0.476L46.099,32.096z"/>
		</g>
		<g>
			<path fill="#FFFFFF" d="M48.4,33.205l-0.64,1.735l-0.395-0.144l0.235-0.638l-1.96-0.724l0.169-0.465l1.961,0.725l0.234-0.637
				L48.4,33.205z"/>
		</g>
		<g>
			<path fill="#FFFFFF" d="M45.771,35.201l1.865,0.045l-0.253,0.52l-1.242-0.083l0.826,0.937l-0.215,0.444l-1.191-1.43l-0.733-0.355
				l0.213-0.434L45.771,35.201z"/>
		</g>
	</g>
	<path fill="#FFFFFF" d="M16.588,40.428c-0.013,0.003-0.027,0.005-0.041,0.008c0.426,0.307,0.866,0.594,1.319,0.862
		c0.016-0.003,0.03-0.007,0.046-0.01C17.458,41.02,17.016,40.734,16.588,40.428z"/>
	<path fill="#FFFFFF" d="M14.403,38.6c-0.011,0.003-0.022,0.005-0.032,0.007c0.225,0.225,0.468,0.429,0.704,0.641
		c0.012-0.002,0.023-0.004,0.035-0.006C14.872,39.03,14.629,38.823,14.403,38.6z"/>
	<path fill="#FFFFFF" d="M9.479,29.529c0.622,3.072,2.044,5.849,4.025,8.128c0.009-0.002,0.016-0.005,0.025-0.007
		C11.542,35.375,10.11,32.602,9.479,29.529z"/>
	<path fill="#FFFFFF" d="M26.96,43.771c-2.736,0-5.318-0.634-7.636-1.734c-0.021,0.003-0.042,0.006-0.063,0.009
		c2.334,1.121,4.94,1.768,7.703,1.768c2.409,0,4.703-0.484,6.8-1.35c-0.061,0.008-0.121,0.017-0.181,0.024
		C31.533,43.307,29.302,43.771,26.96,43.771z"/>
	<path fill="#FFFFFF" d="M41.609,36.14c1.357-1.951,2.341-4.182,2.832-6.594c-0.5,2.426-1.502,4.664-2.878,6.621
		C41.579,36.158,41.594,36.148,41.609,36.14z"/>
	<path fill="#FFFFFF" d="M27.197,41.289c0,0,5.722,0.993,10.366-1.039c-5.383,1.36-12.057,0.065-12.057,0.065
		c-3.63-0.548-6.686-0.302-8.918,0.112c0.428,0.307,0.87,0.592,1.325,0.86C20.286,40.831,23.378,40.657,27.197,41.289z"/>
	<path fill="#FFFFFF" d="M30.59,33.582c-0.053,0.006-0.206,0.092-0.206,0.855c0,0.773,0.161,0.841,0.21,0.841
		c0.042,0,0.203-0.071,0.203-0.841C30.797,33.674,30.643,33.588,30.59,33.582z"/>
	<path fill="#FFFFFF" d="M25.987,33.582c-0.07,0-0.23,0.005-0.23,0.364c0,0.33,0.163,0.33,0.232,0.33
		c0.049-0.001,0.196-0.008,0.206-0.335C26.182,33.597,26.042,33.587,25.987,33.582z"/>
	<path fill="#FFFFFF" d="M26.305,39.303c0,0,8.853,1.836,13.699-1.327c-6.104,2.407-13.708,0.561-13.708,0.561l-0.014-0.003
		c-4.785-0.994-8.806-0.655-11.879,0.066c0.226,0.224,0.469,0.431,0.706,0.642C18.008,38.811,22.079,38.53,26.305,39.303z"/>
	<path fill="#FFFFFF" d="M27.066,42.322c-3.259-0.584-5.795-0.563-7.742-0.286c2.318,1.101,4.9,1.734,7.636,1.734
		c2.342,0,4.573-0.464,6.623-1.283C30.083,42.937,27.066,42.322,27.066,42.322z"/>
	<path fill="#FFFFFF" d="M26.96,8.074c-9.856,0-17.845,7.99-17.845,17.849c0,1.235,0.126,2.441,0.365,3.606
		c-0.232-1.149-0.356-2.339-0.356-3.557c0-9.851,7.989-17.837,17.841-17.837c9.849,0,17.836,7.986,17.836,17.837
		c0,1.224-0.125,2.419-0.359,3.573c0.241-1.17,0.369-2.382,0.369-3.623C44.811,16.064,36.818,8.074,26.96,8.074z"/>
	<path fill="#FFFFFF" d="M26.964,8.136c-9.852,0-17.841,7.986-17.841,17.837c0,1.218,0.124,2.407,0.356,3.557
		c0.63,3.072,2.062,5.846,4.05,8.121c3.319-0.882,7.842-1.322,13.431-0.096c0,0,8.671,2.089,14.604-1.388
		c1.376-1.957,2.377-4.195,2.878-6.621c0.234-1.154,0.359-2.35,0.359-3.573C44.8,16.122,36.813,8.136,26.964,8.136z M26.102,9.496
		c0,0,0.249-0.293,0.523,0.004l6.599,6.789l-1.438,1.42l-5.445-5.6l-4.317,4.285l3.998,4.135l1.419-1.402l-2.216-2.277l1.44-1.419
		l3.624,3.728l-4.301,4.243l-6.841-7.075L26.102,9.496z M24.379,35.767H23.7v-1.869c-0.127,0.089-0.266,0.164-0.412,0.227
		l-0.125,0.052v-0.683l0.049-0.022c0.198-0.1,0.386-0.218,0.561-0.356l0.025-0.018h0.581V35.767z M26.679,35.416
		c-0.154,0.253-0.397,0.38-0.729,0.38h-0.032c-0.66,0-0.808-0.399-0.814-0.735v-0.093h0.664l0.013,0.074
		c0.038,0.236,0.128,0.236,0.155,0.236c0.062,0,0.106-0.017,0.142-0.057c0.055-0.058,0.116-0.184,0.12-0.478
		c-0.112,0.061-0.234,0.086-0.368,0.076c-0.455-0.05-0.716-0.338-0.762-0.838v-0.01v-0.006c0.037-0.567,0.343-0.885,0.889-0.926
		l0.027-0.002c0.252,0,0.454,0.075,0.601,0.223c0.196,0.2,0.292,0.528,0.287,0.98C26.88,34.801,26.818,35.185,26.679,35.416z
		 M28.399,35.796h-0.004h-0.004c-0.671-0.013-0.83-0.407-0.843-0.735l-0.005-0.093h0.658l0.009,0.079
		c0.025,0.195,0.118,0.226,0.195,0.231c0.06-0.001,0.222-0.021,0.243-0.445c-0.019-0.3-0.138-0.351-0.23-0.361
		c-0.062,0.005-0.146,0.037-0.196,0.215l-0.02,0.068l-0.646-0.021l0.072-1.638h1.557v0.526h-0.963l-0.015,0.386
		c0.096-0.054,0.206-0.083,0.327-0.083c0.351,0.015,0.769,0.191,0.78,0.949C29.267,35.441,28.95,35.754,28.399,35.796z
		 M30.58,35.796h-0.003h-0.002c-0.557-0.013-0.851-0.469-0.867-1.356c0.016-0.921,0.31-1.391,0.867-1.4
		c0.589,0.01,0.893,0.479,0.912,1.398C31.478,35.327,31.172,35.783,30.58,35.796z M43.04,26.499l-7.725,7.75l-5.773-5.81
		l4.776-4.719l2.817,2.918l-1.497,1.465l-1.355-1.407l-1.776,1.755l2.811,2.829l5.031-5.049l-5.889-5.593L20.103,34.865
		l-8.814-8.966l-0.475-0.481c0,0-0.275-0.244,0.006-0.522l0.476-0.473l6.828-6.754l6.477,6.667L20.2,28.649l-3.388-3.476
		l1.488-1.473l1.929,1.975l1.42-1.37l-3.555-3.666L13.5,25.184l6.632,6.708l14.347-14.214l8.567,8.316
		C43.046,25.994,43.337,26.226,43.04,26.499z"/>
	<path fill="#FFFFFF" d="M40.352,37.732c0.174-0.197,0.323-0.416,0.489-0.62c-0.193,0.237-0.39,0.472-0.594,0.699
		C40.283,37.786,40.317,37.759,40.352,37.732z"/>
	<path fill="#FFFFFF" d="M41.059,36.837c0.183-0.233,0.381-0.453,0.551-0.697c-0.016,0.009-0.031,0.019-0.046,0.027
		C41.402,36.396,41.231,36.617,41.059,36.837z"/>
	<path fill="#FFFFFF" d="M13.529,37.65c-0.009,0.002-0.016,0.005-0.025,0.007c0.281,0.324,0.563,0.647,0.867,0.949
		c0.01-0.002,0.021-0.004,0.032-0.007C14.098,38.297,13.813,37.975,13.529,37.65z"/>
	<path fill="#FFFFFF" d="M41.059,36.837c-0.072,0.093-0.144,0.185-0.217,0.275C40.915,37.021,40.987,36.93,41.059,36.837z"/>
	<path fill="#FFFFFF" d="M15.109,39.241c-0.012,0.002-0.023,0.004-0.035,0.006c0.47,0.421,0.96,0.818,1.473,1.188
		c0.014-0.003,0.027-0.005,0.041-0.008C16.073,40.059,15.582,39.662,15.109,39.241z"/>
	<path fill="#FFFFFF" d="M37.585,40.24c0.045-0.02,0.089-0.04,0.133-0.06c0.902-0.685,1.734-1.45,2.49-2.289
		c-0.018,0.007-0.036,0.015-0.053,0.021C39.375,38.77,38.517,39.548,37.585,40.24z"/>
	<path fill="#FFFFFF" d="M40.155,37.913c0.018-0.007,0.036-0.015,0.053-0.021c0.047-0.054,0.097-0.105,0.144-0.159
		c-0.035,0.026-0.069,0.054-0.104,0.079C40.217,37.846,40.186,37.879,40.155,37.913z"/>
	<path fill="#FFFFFF" d="M40.248,37.812c-0.08,0.057-0.162,0.11-0.244,0.164c0.051-0.021,0.101-0.042,0.151-0.063
		C40.186,37.879,40.217,37.846,40.248,37.812z"/>
	<path fill="#FFFFFF" d="M17.913,41.288c-0.016,0.003-0.03,0.007-0.046,0.01c0.453,0.27,0.917,0.518,1.395,0.747
		c0.021-0.003,0.042-0.006,0.063-0.009C18.841,41.807,18.371,41.559,17.913,41.288z"/>
	<path fill="#FFFFFF" d="M33.583,42.487c0.06-0.008,0.121-0.017,0.181-0.024c1.398-0.578,2.697-1.338,3.89-2.234
		c-0.025,0.007-0.052,0.012-0.077,0.019C36.354,41.154,35.017,41.913,33.583,42.487z"/>
	<path fill="#FFFFFF" d="M37.576,40.247c0.025-0.007,0.052-0.012,0.077-0.019c0.021-0.016,0.043-0.032,0.064-0.048
		c-0.044,0.02-0.088,0.04-0.133,0.06C37.582,40.242,37.579,40.245,37.576,40.247z"/>
	<path fill="#FFFFFF" d="M37.576,40.247c0.003-0.002,0.006-0.005,0.009-0.007c-0.007,0.003-0.015,0.007-0.021,0.01
		C37.567,40.249,37.572,40.248,37.576,40.247z"/>
</g>
</svg>
